<svg viewBox="0 0 595.275590551 841.88976378" width="595.275590551pt" height="841.88976378pt" xmlns="http://www.w3.org/2000/svg" xmlns:xlink="http://www.w3.org/1999/xlink" xmlns:h5="http://www.w3.org/1999/xhtml"><path fill="#ffffff" fill-rule="nonzero" d="M 0 0v 841.88976378h 595.275590551v -841.88976378Z "/><path fill="#f5f5f5" fill-rule="nonzero" transform="translate(51.023622047 53.858267717)" d="M 0 0v 23.893554688h 49.322834646v -23.893554688Z "/><path fill="#f5f5f5" fill-rule="nonzero" transform="translate(51.023622047 77.751822404)" d="M 0 0v 23.893554688h 49.322834646v -23.893554688Z "/><path fill="#f5f5f5" fill-rule="nonzero" transform="translate(100.346456693 53.858267717)" d="M 0 0v 23.893554688h 49.322834646v -23.893554688Z "/><path fill="#f5f5f5" fill-rule="nonzero" transform="translate(100.346456693 77.751822404)" d="M 0 0v 23.893554688h 49.322834646v -23.893554688Z "/><path fill="#f5f5f5" fill-rule="nonzero" transform="translate(149.669291339 53.858267717)" d="M 0 0v 23.893554688h 49.322834646v -23.893554688Z "/><path fill="#f5f5f5" fill-rule="nonzero" transform="translate(149.669291339 77.751822404)" d="M 0 0v 23.893554688h 49.322834646v -23.893554688Z "/><path fill="#f5f5f5" fill-rule="nonzero" transform="translate(198.992125984 53.858267717)" d="M 0 0v 23.893554688h 49.322834646v -23.893554688Z "/><path fill="#f5f5f5" fill-rule="nonzero" transform="translate(198.992125984 77.751822404)" d="M 0 0v 23.893554688h 49.322834646v -23.893554688Z "/><path fill="#f5f5f5" fill-rule="nonzero" transform="translate(248.31496063 53.858267717)" d="M 0 0v 23.893554688h 49.322834646v -23.893554688Z "/><path fill="#f5f5f5" fill-rule="nonzero" transform="translate(248.31496063 77.751822404)" d="M 0 0v 23.893554688h 49.322834646v -23.893554688Z "/><path fill="#f5f5f5" fill-rule="nonzero" transform="translate(297.637795276 53.858267717)" d="M 0 0v 23.893554688h 49.322834646v -23.893554688Z "/><path fill="#f5f5f5" fill-rule="nonzero" transform="translate(297.637795276 77.751822404)" d="M 0 0v 23.893554688h 49.322834646v -23.893554688Z "/><path fill="#f5f5f5" fill-rule="nonzero" transform="translate(346.960629921 53.858267717)" d="M 0 0v 23.893554688h 49.322834646v -23.893554688Z "/><path fill="#f5f5f5" fill-rule="nonzero" transform="translate(346.960629921 77.751822404)" d="M 0 0v 23.893554688h 49.322834646v -23.893554688Z "/><path fill="#f5f5f5" fill-rule="nonzero" transform="translate(396.283464567 53.858267717)" d="M 0 0v 23.893554688h 49.322834646v -23.893554688Z "/><path fill="#f5f5f5" fill-rule="nonzero" transform="translate(396.283464567 77.751822404)" d="M 0 0v 23.893554688h 49.322834646v -23.893554688Z "/><path fill="#f5f5f5" fill-rule="nonzero" transform="translate(445.606299213 53.858267717)" d="M 0 0v 23.893554688h 49.322834646v -23.893554688Z "/><path fill="#f5f5f5" fill-rule="nonzero" transform="translate(445.606299213 77.751822404)" d="M 0 0v 23.893554688h 49.322834646v -23.893554688Z "/><path fill="#f5f5f5" fill-rule="nonzero" transform="translate(494.929133858 53.858267717)" d="M 0 0v 23.893554688h 49.322834646v -23.893554688Z "/><path fill="#f5f5f5" fill-rule="nonzero" transform="translate(494.929133858 77.751822404)" d="M 0 0v 23.893554688h 49.322834646v -23.893554688Z "/><path fill="none" stroke="#b8b8b8" stroke-width="0.35" stroke-linecap="butt" stroke-linejoin="miter" stroke-miterlimit="4" transform="translate(50.848622047 77.751822404)" d="M 0 0h 493.578346457"/><path fill="none" stroke="#b8b8b8" stroke-width="0.35" stroke-linecap="butt" stroke-linejoin="miter" stroke-miterlimit="4" transform="translate(50.848622047 101.645377092)" d="M 0 0h 493.578346457"/><g transform="matrix(1 0 0 -1 64.703203433 69.274771623)"><use xlink:href="#gDB5FB59CE293D236AC38E6E5950385CE" x="0" y="0" fill="#595959" fill-rule="nonzero"/></g><g transform="matrix(1 0 0 -1 76.166875308 68.95504506)"><use xlink:href="#gB440E9A372459B7FF2668057396AE34F" x="0" y="0" fill="#000000" fill-rule="nonzero"/></g><g transform="matrix(1 0 0 -1 113.469397453 69.274771623)"><use xlink:href="#g418E9A991A82F008630E7A63A89B1ACB" x="0" y="0" fill="#595959" fill-rule="nonzero"/></g><g transform="matrix(1 0 0 -1 126.046350578 68.95504506)"><use xlink:href="#g42D2342AA5FCC9323D09C2EC1F505FF9" x="0" y="0" fill="#000000" fill-rule="nonzero"/></g><g transform="matrix(1 0 0 -1 162.792232099 69.274771623)"><use xlink:href="#gB8B171E6EB209D780E7A9641CCF64937" x="0" y="0" fill="#595959" fill-rule="nonzero"/></g><g transform="matrix(1 0 0 -1 175.369185224 68.95504506)"><use xlink:href="#gF20ADD06758900BA8A11E40FD5C49936" x="0" y="0" fill="#000000" fill-rule="nonzero"/></g><g transform="matrix(1 0 0 -1 212.115066745 69.274771623)"><use xlink:href="#gD87ECD844C0E13EA4F807C3BCEC869C4" x="0" y="0" fill="#595959" fill-rule="nonzero"/></g><g transform="matrix(1 0 0 -1 224.69201987 68.95504506)"><use xlink:href="#g392127A89908C0757FD2B3CB34BFF5CE" x="0" y="0" fill="#000000" fill-rule="nonzero"/></g><g transform="matrix(1 0 0 -1 261.43790139 69.274771623)"><use xlink:href="#g880206FE41F2AB813A35217379723E3C" x="0" y="0" fill="#595959" fill-rule="nonzero"/></g><g transform="matrix(1 0 0 -1 274.014854515 68.95504506)"><use xlink:href="#gF20ADD06758900BA8A11E40FD5C49936" x="0" y="0" fill="#000000" fill-rule="nonzero"/></g><g transform="matrix(1 0 0 -1 310.760736036 69.274771623)"><use xlink:href="#g6CE84A1ECBDB6684213BF7AC1C2D5ED" x="0" y="0" fill="#595959" fill-rule="nonzero"/></g><g transform="matrix(1 0 0 -1 323.337689161 68.95504506)"><use xlink:href="#gB440E9A372459B7FF2668057396AE34F" x="0" y="0" fill="#000000" fill-rule="nonzero"/></g><g transform="matrix(1 0 0 -1 360.222730838 69.274771623)"><use xlink:href="#g5EAD0243FCAB0C7BA707597E03FD3EA6" x="0" y="0" fill="#595959" fill-rule="nonzero"/></g><g transform="matrix(1 0 0 -1 372.52136365 68.95504506)"><use xlink:href="#g92F0F366AED000AFFE65A0D405259A60" x="0" y="0" fill="#000000" fill-rule="nonzero"/></g><g transform="matrix(1 0 0 -1 409.406405327 69.274771623)"><use xlink:href="#g8BFB07B7900D860940E9D2B0BB1CC3C9" x="0" y="0" fill="#595959" fill-rule="nonzero"/></g><g transform="matrix(1 0 0 -1 421.983358452 68.95504506)"><use xlink:href="#g392127A89908C0757FD2B3CB34BFF5CE" x="0" y="0" fill="#000000" fill-rule="nonzero"/></g><g transform="matrix(1 0 0 -1 458.729239973 69.274771623)"><use xlink:href="#g95D1EAD53F0C1EBE974A41AF20853C2A" x="0" y="0" fill="#595959" fill-rule="nonzero"/></g><g transform="matrix(1 0 0 -1 471.306193098 68.95504506)"><use xlink:href="#g42D2342AA5FCC9323D09C2EC1F505FF9" x="0" y="0" fill="#000000" fill-rule="nonzero"/></g><g transform="matrix(1 0 0 -1 505.888134189 69.274771623)"><use xlink:href="#gDB5FB59CE293D236AC38E6E5950385CE" x="0" y="0" fill="#595959" fill-rule="nonzero"/><use xlink:href="#gC77012C6426D05C9D68A33F0B8048313" x="4.327880859" y="0" fill="#595959" fill-rule="nonzero"/></g><g transform="matrix(1 0 0 -1 522.792968173 68.95504506)"><use xlink:href="#g92F0F366AED000AFFE65A0D405259A60" x="0" y="0" fill="#000000" fill-rule="nonzero"/></g><g transform="matrix(1 0 0 -1 62.625078433 93.16832631)"><use xlink:href="#gDB5FB59CE293D236AC38E6E5950385CE" x="0" y="0" fill="#595959" fill-rule="nonzero"/><use xlink:href="#gDB5FB59CE293D236AC38E6E5950385CE" x="4.15625" y="0" fill="#595959" fill-rule="nonzero"/></g><g transform="matrix(1 0 0 -1 78.245000308 92.848599748)"><use xlink:href="#gF20ADD06758900BA8A11E40FD5C49936" x="0" y="0" fill="#000000" fill-rule="nonzero"/></g><g transform="matrix(1 0 0 -1 111.342566399 93.16832631)"><use xlink:href="#gDB5FB59CE293D236AC38E6E5950385CE" x="0" y="0" fill="#595959" fill-rule="nonzero"/><use xlink:href="#g418E9A991A82F008630E7A63A89B1ACB" x="4.253662109" y="0" fill="#595959" fill-rule="nonzero"/></g><g transform="matrix(1 0 0 -1 128.173181633 92.848599748)"><use xlink:href="#gB440E9A372459B7FF2668057396AE34F" x="0" y="0" fill="#000000" fill-rule="nonzero"/></g><g transform="matrix(1 0 0 -1 160.67931706 93.16832631)"><use xlink:href="#gDB5FB59CE293D236AC38E6E5950385CE" x="0" y="0" fill="#595959" fill-rule="nonzero"/><use xlink:href="#gB8B171E6EB209D780E7A9641CCF64937" x="4.225830078" y="0" fill="#595959" fill-rule="nonzero"/></g><g transform="matrix(1 0 0 -1 177.482100263 92.848599748)"><use xlink:href="#g42D2342AA5FCC9323D09C2EC1F505FF9" x="0" y="0" fill="#000000" fill-rule="nonzero"/></g><g transform="matrix(1 0 0 -1 209.98823569 93.16832631)"><use xlink:href="#gDB5FB59CE293D236AC38E6E5950385CE" x="0" y="0" fill="#595959" fill-rule="nonzero"/><use xlink:href="#gD87ECD844C0E13EA4F807C3BCEC869C4" x="4.253662109" y="0" fill="#595959" fill-rule="nonzero"/></g><g transform="matrix(1 0 0 -1 226.818850924 92.848599748)"><use xlink:href="#g92F0F366AED000AFFE65A0D405259A60" x="0" y="0" fill="#000000" fill-rule="nonzero"/></g><g transform="matrix(1 0 0 -1 259.322667015 93.16832631)"><use xlink:href="#gDB5FB59CE293D236AC38E6E5950385CE" x="0" y="0" fill="#595959" fill-rule="nonzero"/><use xlink:href="#g880206FE41F2AB813A35217379723E3C" x="4.23046875" y="0" fill="#595959" fill-rule="nonzero"/></g><g transform="matrix(1 0 0 -1 276.13008889 92.848599748)"><use xlink:href="#g392127A89908C0757FD2B3CB34BFF5CE" x="0" y="0" fill="#000000" fill-rule="nonzero"/></g><g transform="matrix(1 0 0 -1 308.631585645 93.16832631)"><use xlink:href="#gDB5FB59CE293D236AC38E6E5950385CE" x="0" y="0" fill="#595959" fill-rule="nonzero"/><use xlink:href="#g6CE84A1ECBDB6684213BF7AC1C2D5ED" x="4.258300781" y="0" fill="#595959" fill-rule="nonzero"/></g><g transform="matrix(1 0 0 -1 325.466839552 92.848599748)"><use xlink:href="#gF20ADD06758900BA8A11E40FD5C49936" x="0" y="0" fill="#000000" fill-rule="nonzero"/></g><g transform="matrix(1 0 0 -1 358.119093143 93.16832631)"><use xlink:href="#gDB5FB59CE293D236AC38E6E5950385CE" x="0" y="0" fill="#595959" fill-rule="nonzero"/><use xlink:href="#g5EAD0243FCAB0C7BA707597E03FD3EA6" x="4.207275391" y="0" fill="#595959" fill-rule="nonzero"/></g><g transform="matrix(1 0 0 -1 374.625001346 92.848599748)"><use xlink:href="#g42D2342AA5FCC9323D09C2EC1F505FF9" x="0" y="0" fill="#000000" fill-rule="nonzero"/></g><g transform="matrix(1 0 0 -1 407.240145562 93.16832631)"><use xlink:href="#gDB5FB59CE293D236AC38E6E5950385CE" x="0" y="0" fill="#595959" fill-rule="nonzero"/><use xlink:href="#g8BFB07B7900D860940E9D2B0BB1CC3C9" x="4.332519531" y="0" fill="#595959" fill-rule="nonzero"/></g><g transform="matrix(1 0 0 -1 424.149618218 92.848599748)"><use xlink:href="#g92F0F366AED000AFFE65A0D405259A60" x="0" y="0" fill="#000000" fill-rule="nonzero"/></g><g transform="matrix(1 0 0 -1 456.579215559 93.16832631)"><use xlink:href="#gDB5FB59CE293D236AC38E6E5950385CE" x="0" y="0" fill="#595959" fill-rule="nonzero"/><use xlink:href="#g95D1EAD53F0C1EBE974A41AF20853C2A" x="4.300048828" y="0" fill="#595959" fill-rule="nonzero"/></g><g transform="matrix(1 0 0 -1 473.456217512 92.848599748)"><use xlink:href="#g392127A89908C0757FD2B3CB34BFF5CE" x="0" y="0" fill="#000000" fill-rule="nonzero"/></g><g transform="matrix(1 0 0 -1 505.194652744 93.16832631)"><use xlink:href="#g418E9A991A82F008630E7A63A89B1ACB" x="0" y="0" fill="#595959" fill-rule="nonzero"/><use xlink:href="#gC77012C6426D05C9D68A33F0B8048313" x="5.71484375" y="0" fill="#595959" fill-rule="nonzero"/></g><g transform="matrix(1 0 0 -1 523.486449619 92.848599748)"><use xlink:href="#gB440E9A372459B7FF2668057396AE34F" x="0" y="0" fill="#000000" fill-rule="nonzero"/></g><defs><symbol id="gDB5FB59CE293D236AC38E6E5950385CE" overflow="visible"><path d="M 0 0m 2.486328125 5.960693359l -1.943603516 -1.192138672v 0.839599609l 2.138427734 1.3359375h 0.589111328v -6.90234375h -0.783935547v 5.918945313Z "/></symbol><symbol id="gB440E9A372459B7FF2668057396AE34F" overflow="visible"><path d="M 0 0m 9.64425 0.53025q -0.68775 -1.16025 -1.85325 -1.84275q -1.1655 -0.6825 -2.5305 -0.6825q -1.365 0 -2.52525 0.6825q -1.16025 0.6825 -1.848 1.848q -0.68775 1.1655 -0.68775 2.5305q 0 1.3755 0.6825 2.53575q 0.6825 1.16025 1.84275 1.84275q 1.16025 0.6825 2.53575 0.6825q 1.3755 0 2.541 -0.6825q 1.1655 -0.6825 1.848 -1.84275q 0.6825 -1.16025 0.6825 -2.53575q 0 -1.3755 -0.68775 -2.53575Z m -0.378 4.8615q -0.62475 1.06575 -1.68525 1.6905q -1.0605 0.62475 -2.3205 0.62475q -1.2495 0 -2.31525 -0.62475q -1.06575 -0.62475 -1.68525 -1.6905q -0.6195 -1.06575 -0.6195 -2.32575q 0 -1.2495 0.6195 -2.31525q 0.6195 -1.06575 1.68525 -1.69575q 1.06575 -0.63 2.31525 -0.63q 1.2495 0 2.31525 0.63q 1.06575 0.63 1.6905 1.69575q 0.62475 1.06575 0.62475 2.31525q 0 1.26 -0.62475 2.32575Z m -5.16075 0.01575q -0.063 0.0315 -0.063 0.0945q 0 0.1155 0.1575 0.3045q 0.1575 0.189 0.4515 0.33075q 0.294 0.14175 0.693 0.14175q 0.588 0 0.91875 -0.4095q 0.33075 -0.4095 0.33075 -1.05q 0 -0.63 -0.3465 -0.9555q -0.3465 -0.3255 -0.945 -0.3675q -0.126 -0.0105 -0.273 0.0105q -0.147 0.021 -0.189 0.0315q -0.1365 0.0315 -0.2625 0.0315q -0.294 0 -0.294 -0.2625q 0 -0.2625 0.336 -0.2625q 0.084 0 0.294 0.042q 0.2625 0.0525 0.4725 0.042q 0.441 -0.021 0.92925 -0.3465q 0.48825 -0.3255 0.48825 -1.2495q 0 -0.7665 -0.48825 -1.197q -0.48825 -0.4305 -1.24425 -0.4305q -0.2835 0 -0.5775 0.1155q -0.294 0.1155 -0.48825 0.28875q -0.19425 0.17325 -0.19425 0.30975q 0 0.168 0.105 0.21q 0.126 0.063 0.21 0.17325q 0.084 0.11025 0.084 0.25725q 0 0.1995 -0.126 0.3255q -0.126 0.126 -0.378 0.126q -0.2415 0 -0.399 -0.1785q -0.1575 -0.1785 -0.1575 -0.4725q 0 -0.4305 0.3045 -0.7665q 0.3045 -0.336 0.7875 -0.51975q 0.483 -0.18375 1.008 -0.18375q 0.6195 0 1.1445 0.22575q 0.525 0.22575 0.83475 0.6615q 0.30975 0.43575 0.30975 1.02375q 0 0.7455 -0.38325 1.1865q -0.38325 0.441 -1.16025 0.63q 0.5775 0.1785 0.945 0.588q 0.3675 0.4095 0.3675 0.987q 0 0.504 -0.2625 0.89775q -0.2625 0.39375 -0.714 0.61425q -0.4515 0.2205 -1.008 0.2205q -0.483 0 -0.91875 -0.1995q -0.43575 -0.1995 -0.7035 -0.546q -0.26775 -0.3465 -0.26775 -0.7665q 0 -0.2415 0.14175 -0.38325q 0.14175 -0.14175 0.34125 -0.14175q 0.189 0 0.3255 0.12075q 0.1365 0.12075 0.1365 0.28875q 0 0.1575 -0.084 0.25725q -0.084 0.09975 -0.1995 0.15225h 0.0105Z "/></symbol><symbol id="g418E9A991A82F008630E7A63A89B1ACB" overflow="visible"><path d="M 0 0m 0.888305664 6.020996094q 0.303833008 0.482421875 0.814086914 0.760742188q 0.510253906 0.278320313 1.159667969 0.278320313q 0.644775391 0 1.148071289 -0.245849609q 0.503295898 -0.245849609 0.783935547 -0.705078125q 0.280639648 -0.459228516 0.280639648 -1.076171875q 0 -0.473144531 -0.185546875 -0.872070313q -0.185546875 -0.398925781 -0.484741211 -0.746826172q -0.299194336 -0.347900391 -0.883666992 -0.932373047l -0.111328125 -0.111328125l -1.6328125 -1.6328125h 3.492919922v -0.695800781h -4.689697266v 0.505615234l 2.268310547 2.254394531q 0.538085938 0.533447266 0.81640625 0.851196289q 0.278320313 0.317749023 0.442993164 0.65637207q 0.164672852 0.338623047 0.164672852 0.723632813q 0 0.417480469 -0.180908203 0.728271484q -0.180908203 0.310791016 -0.503295898 0.480102539q -0.322387695 0.169311523 -0.739868164 0.169311523q -0.426757813 0 -0.756103516 -0.183227539q -0.329345703 -0.183227539 -0.528808594 -0.517211914q -0.199462891 -0.333984375 -0.245849609 -0.774658203h -0.779296875q 0.046386719 0.603027344 0.350219727 1.085449219Z "/></symbol><symbol id="g42D2342AA5FCC9323D09C2EC1F505FF9" overflow="visible"><path d="M 0 0m 9.64425 0.53025q -0.68775 -1.16025 -1.85325 -1.84275q -1.1655 -0.6825 -2.5305 -0.6825q -1.365 0 -2.52525 0.6825q -1.16025 0.6825 -1.848 1.848q -0.68775 1.1655 -0.68775 2.5305q 0 1.3755 0.6825 2.53575q 0.6825 1.16025 1.84275 1.84275q 1.16025 0.6825 2.53575 0.6825q 1.3755 0 2.541 -0.6825q 1.1655 -0.6825 1.848 -1.84275q 0.6825 -1.16025 0.6825 -2.53575q 0 -1.3755 -0.68775 -2.53575Z m -0.378 4.8615q -0.62475 1.06575 -1.68525 1.6905q -1.0605 0.62475 -2.3205 0.62475q -1.2495 0 -2.31525 -0.62475q -1.06575 -0.62475 -1.68525 -1.6905q -0.6195 -1.06575 -0.6195 -2.32575q 0 -1.2495 0.6195 -2.31525q 0.6195 -1.06575 1.68525 -1.69575q 1.06575 -0.63 2.31525 -0.63q 1.2495 0 2.31525 0.63q 1.06575 0.63 1.6905 1.69575q 0.62475 1.06575 0.62475 2.31525q 0 1.26 -0.62475 2.32575Z m -2.04225 1.12875q -0.4095 -0.231 -1.575 -0.231q -0.777 0 -1.89 0.252l -0.2415 -3.066q 0 -0.0105 -0.0735 -0.084v 0.0105q -0.0105 -0.0105 -0.0735 -0.06825q -0.063 -0.05775 -0.0945 -0.126q -0.0315 -0.06825 -0.0315 -0.14175q 0 -0.147 0.09975 -0.23625q 0.09975 -0.08925 0.23625 -0.08925q 0.1575 0 0.21 0.08925q 0.0525 0.08925 0.063 0.23625q 0 0.0735 0.0105 0.084q 0.0315 0.105 0.20475 0.23625q 0.17325 0.13125 0.441 0.22575q 0.26775 0.0945 0.56175 0.0945q 0.7665 0 1.1655 -0.525q 0.399 -0.525 0.399 -1.3755q 0 -0.9765 -0.4725 -1.4595q -0.4725 -0.483 -1.197 -0.483q -0.2625 0 -0.567 0.105q -0.3045 0.105 -0.5145 0.2835q -0.21 0.1785 -0.21 0.3675q 0 0.126 0.105 0.147q 0.126 0.063 0.21 0.18375q 0.084 0.12075 0.084 0.26775q 0 0.168 -0.1365 0.2835q -0.1365 0.1155 -0.3465 0.1155q -0.2625 0 -0.399 -0.16275q -0.1365 -0.16275 -0.1365 -0.42525q 0 -0.4095 0.26775 -0.75075q 0.26775 -0.34125 0.714 -0.54075q 0.44625 -0.1995 0.95025 -0.1995q 0.7035 0 1.239 0.2835q 0.5355 0.2835 0.83475 0.798q 0.29925 0.5145 0.29925 1.176q 0 0.714 -0.294 1.23375q -0.294 0.51975 -0.78225 0.78225q -0.48825 0.2625 -1.06575 0.2625q -0.7455 0 -1.2915 -0.378l 0.1785 2.1315q 0.042 -0.021 0.1155 -0.021q 0.609 -0.105 0.987 -0.105q 1.491 0 2.0895 0.483l -0.0735 0.336Z "/></symbol><symbol id="gB8B171E6EB209D780E7A9641CCF64937" overflow="visible"><path d="M 0 0m 1.725585938 0.106689453q -0.51953125 0.231933594 -0.841918945 0.644775391q -0.322387695 0.412841797 -0.410522461 0.937011719h 0.839599609q 0.060302734 -0.315429688 0.264404297 -0.575195313q 0.204101563 -0.259765625 0.542724609 -0.415161133q 0.338623047 -0.155395508 0.779296875 -0.155395508q 0.487060547 0 0.844238281 0.171630859q 0.357177734 0.171630859 0.547363281 0.487060547q 0.190185547 0.315429688 0.190185547 0.737548828q 0 0.626220703 -0.449951172 0.957885742q -0.449951172 0.331665039 -1.270996094 0.331665039h -0.695800781v 0.695800781h 0.66796875q 0.459228516 0 0.809448242 0.16003418q 0.350219727 0.16003418 0.542724609 0.447631836q 0.192504883 0.287597656 0.192504883 0.654052734q 0 0.352539063 -0.162353516 0.630859375q -0.162353516 0.278320313 -0.477783203 0.438354492q -0.315429688 0.16003418 -0.756103516 0.16003418q -0.380371094 0 -0.684204102 -0.13684082q -0.303833008 -0.13684082 -0.491699219 -0.391967773q -0.187866211 -0.255126953 -0.23425293 -0.59375h -0.81640625q 0.069580078 0.524169922 0.378051758 0.925415039q 0.30847168 0.401245117 0.793212891 0.621582031q 0.484741211 0.220336914 1.055297852 0.220336914q 0.681884766 0 1.173583984 -0.231933594q 0.491699219 -0.231933594 0.746826172 -0.635498047q 0.255126953 -0.403564453 0.255126953 -0.918457031q 0 -0.417480469 -0.171630859 -0.763061523q -0.171630859 -0.345581055 -0.480102539 -0.575195313q -0.30847168 -0.229614258 -0.716674805 -0.322387695q 0.463867188 -0.041748047 0.823364258 -0.257446289q 0.35949707 -0.215698242 0.558959961 -0.589111328q 0.199462891 -0.373413086 0.199462891 -0.874389648q 0 -0.598388672 -0.303833008 -1.057617188q -0.303833008 -0.459228516 -0.841918945 -0.709716797q -0.538085938 -0.250488281 -1.224609375 -0.250488281q -0.654052734 0 -1.173583984 0.231933594Z "/></symbol><symbol id="gF20ADD06758900BA8A11E40FD5C49936" overflow="visible"><path d="M 0 0m 9.64425 0.53025q -0.68775 -1.16025 -1.85325 -1.84275q -1.1655 -0.6825 -2.5305 -0.6825q -1.365 0 -2.52525 0.6825q -1.16025 0.6825 -1.848 1.848q -0.68775 1.1655 -0.68775 2.5305q 0 1.3755 0.6825 2.53575q 0.6825 1.16025 1.84275 1.84275q 1.16025 0.6825 2.53575 0.6825q 1.3755 0 2.541 -0.6825q 1.1655 -0.6825 1.848 -1.84275q 0.6825 -1.16025 0.6825 -2.53575q 0 -1.3755 -0.68775 -2.53575Z m -0.378 4.8615q -0.62475 1.06575 -1.68525 1.6905q -1.0605 0.62475 -2.3205 0.62475q -1.2495 0 -2.31525 -0.62475q -1.06575 -0.62475 -1.68525 -1.6905q -0.6195 -1.06575 -0.6195 -2.32575q 0 -1.2495 0.6195 -2.31525q 0.6195 -1.06575 1.68525 -1.69575q 1.06575 -0.63 2.31525 -0.63q 1.2495 0 2.31525 0.63q 1.06575 0.63 1.6905 1.69575q 0.62475 1.06575 0.62475 2.31525q 0 1.26 -0.62475 2.32575Z m -1.98975 -3.53325h -1.1865v 4.179l 0.042 0.7035h -0.3465l -3.3285 -4.8825v -0.378h 2.9925v -0.8505q 0 -0.231 -0.042 -0.336q -0.042 -0.105 -0.14175 -0.1365q -0.09975 -0.0315 -0.33075 -0.0315h -0.504v -0.294h 2.562v 0.294h -0.4935q -0.2625 0 -0.336 0.08925q -0.0735 0.08925 -0.0735 0.40425v 0.861h 1.1865v 0.378Z m -1.827 0h -2.5935l 2.5935 3.8115v -3.8115Z "/></symbol><symbol id="gD87ECD844C0E13EA4F807C3BCEC869C4" overflow="visible"><path d="M 0 0m 0.352539063 2.347167969l 3.033691406 4.578369141h 1.015869141v -4.569091797h 1.238525391v -0.695800781h -1.238525391v -1.618896484h -0.751464844v 1.618896484h -3.298095703v 0.686523438Z m 3.307373047 0v 3.757324219l -2.458496094 -3.757324219h 2.458496094Z "/></symbol><symbol id="g392127A89908C0757FD2B3CB34BFF5CE" overflow="visible"><path d="M 0 0m 9.64425 0.53025q -0.68775 -1.16025 -1.85325 -1.84275q -1.1655 -0.6825 -2.5305 -0.6825q -1.365 0 -2.52525 0.6825q -1.16025 0.6825 -1.848 1.848q -0.68775 1.1655 -0.68775 2.5305q 0 1.3755 0.6825 2.53575q 0.6825 1.16025 1.84275 1.84275q 1.16025 0.6825 2.53575 0.6825q 1.3755 0 2.541 -0.6825q 1.1655 -0.6825 1.848 -1.84275q 0.6825 -1.16025 0.6825 -2.53575q 0 -1.3755 -0.68775 -2.53575Z m -0.378 4.8615q -0.62475 1.06575 -1.68525 1.6905q -1.0605 0.62475 -2.3205 0.62475q -1.2495 0 -2.31525 -0.62475q -1.06575 -0.62475 -1.68525 -1.6905q -0.6195 -1.06575 -0.6195 -2.32575q 0 -1.2495 0.6195 -2.31525q 0.6195 -1.06575 1.68525 -1.69575q 1.06575 -0.63 2.31525 -0.63q 1.2495 0 2.31525 0.63q 1.06575 0.63 1.6905 1.69575q 0.62475 1.06575 0.62475 2.31525q 0 1.26 -0.62475 2.32575Z m -5.50725 -0.08925q 0 0.2205 0.1575 0.483q 0.1575 0.2625 0.462 0.441q 0.3045 0.1785 0.714 0.1785q 0.42 0 0.78225 -0.18375q 0.36225 -0.18375 0.5775 -0.51975q 0.21525 -0.336 0.21525 -0.7665q 0 -0.9555 -1.2075 -1.974q -0.8505 -0.7245 -1.365 -1.3335q -0.5145 -0.609 -0.9765 -1.554v -0.1995h 4.137l 0.147 1.7535h -0.3045q -0.0105 -0.084 -0.02625 -0.189q -0.01575 -0.105 -0.02625 -0.21q -0.0525 -0.4305 -0.23625 -0.588q -0.18375 -0.1575 -0.55125 -0.1575h -2.394q 0.357 0.63 0.72975 1.0605q 0.37275 0.4305 0.90825 0.84q 0.861 0.63 1.35975 1.2075q 0.49875 0.5775 0.49875 1.2495q 0 0.5775 -0.2835 1.008q -0.2835 0.4305 -0.7665 0.6615q -0.483 0.231 -1.0605 0.231q -0.609 0 -1.071 -0.24675q -0.462 -0.24675 -0.70875 -0.64575q -0.24675 -0.399 -0.24675 -0.861q 0 -0.315 0.13125 -0.56175q 0.13125 -0.24675 0.42525 -0.24675q 0.21 0 0.3465 0.126q 0.1365 0.126 0.1365 0.3045q 0 0.168 -0.09975 0.2835q -0.09975 0.1155 -0.25725 0.1575q -0.0735 0.0105 -0.1365 0.1365q -0.0105 0.0315 -0.0105 0.1155Z "/></symbol><symbol id="g880206FE41F2AB813A35217379723E3C" overflow="visible"><path d="M 0 0m 1.737182617 0.155395508q -0.512573242 0.238891602 -0.834960938 0.651733398q -0.322387695 0.412841797 -0.410522461 0.927734375h 0.834960938q 0.1484375 -0.542724609 0.563598633 -0.853515625q 0.415161133 -0.310791016 1.022827148 -0.310791016q 0.454589844 0 0.807128906 0.215698242q 0.352539063 0.215698242 0.545043945 0.596069336q 0.192504883 0.380371094 0.192504883 0.867431641q 0 0.487060547 -0.190185547 0.865112305q -0.190185547 0.378051758 -0.547363281 0.591430664q -0.357177734 0.213378906 -0.839599609 0.213378906q -0.468505859 0 -0.841918945 -0.22265625q -0.373413086 -0.22265625 -0.58215332 -0.616943359h -0.793212891l 0.524169922 3.845458984h 3.775878906v -0.700439453h -3.158935547l -0.306152344 -2.319335938q 0.227294922 0.292236328 0.635498047 0.482421875q 0.408203125 0.190185547 0.923095703 0.190185547q 0.640136719 0 1.136474609 -0.292236328q 0.496337891 -0.292236328 0.772338867 -0.821044922q 0.276000977 -0.528808594 0.276000977 -1.215332031q 0 -0.681884766 -0.303833008 -1.213012695q -0.303833008 -0.53112793 -0.839599609 -0.825683594q -0.535766602 -0.294555664 -1.203735352 -0.294555664q -0.644775391 0 -1.157348633 0.238891602Z "/></symbol><symbol id="g6CE84A1ECBDB6684213BF7AC1C2D5ED" overflow="visible"><path d="M 0 0m 1.711669922 0.336303711q -0.579833984 0.419799805 -0.881347656 1.210693359q -0.301513672 0.790893555 -0.301513672 1.880981445q 0 1.131835938 0.310791016 1.950561523q 0.310791016 0.818725586 0.892944336 1.252441406q 0.58215332 0.43371582 1.380004883 0.43371582q 0.825683594 0 1.354492188 -0.431396484q 0.528808594 -0.431396484 0.672607422 -1.215332031h -0.811767578q -0.097412109 0.482421875 -0.408203125 0.737548828q -0.310791016 0.255126953 -0.807128906 0.255126953q -0.570556641 0 -0.983398438 -0.347900391q -0.412841797 -0.347900391 -0.633178711 -1.001953125q -0.220336914 -0.654052734 -0.220336914 -1.553955078q 0 -0.115966797 0.004638672 -0.171630859q 0.153076172 0.352539063 0.436035156 0.619262695q 0.282958984 0.266723633 0.649414063 0.408203125q 0.366455078 0.141479492 0.770019531 0.141479492q 0.644775391 0 1.143432617 -0.287597656q 0.498657227 -0.287597656 0.772338867 -0.807128906q 0.273681641 -0.51953125 0.273681641 -1.192138672q 0 -0.663330078 -0.282958984 -1.1875q -0.282958984 -0.524169922 -0.788574219 -0.818725586q -0.505615234 -0.294555664 -1.145751953 -0.294555664q -0.81640625 0 -1.396240234 0.419799805Z m 0.018554688 1.032104492q 0.194824219 -0.375732422 0.540405273 -0.586791992q 0.345581055 -0.21105957 0.776977539 -0.21105957q 0.436035156 0 0.776977539 0.206420898q 0.340942383 0.206420898 0.528808594 0.577514648q 0.187866211 0.37109375 0.187866211 0.848876953q 0 0.482421875 -0.187866211 0.851196289q -0.187866211 0.368774414 -0.528808594 0.575195313q -0.340942383 0.206420898 -0.786254883 0.206420898q -0.426757813 0 -0.770019531 -0.208740234q -0.343261719 -0.208740234 -0.538085938 -0.577514648q -0.194824219 -0.368774414 -0.194824219 -0.832641602q 0 -0.473144531 0.194824219 -0.848876953Z "/></symbol><symbol id="g5EAD0243FCAB0C7BA707597E03FD3EA6" overflow="visible"><path d="M 0 0m 4.249023438 6.211181641h -3.803710938v 0.714355469h 4.67578125v -0.598388672l -2.954833984 -6.285400391h -0.821044922l 2.903808594 6.169433594Z "/></symbol><symbol id="g92F0F366AED000AFFE65A0D405259A60" overflow="visible"><path d="M 0 0m 9.64425 0.53025q -0.68775 -1.16025 -1.85325 -1.84275q -1.1655 -0.6825 -2.5305 -0.6825q -1.365 0 -2.52525 0.6825q -1.16025 0.6825 -1.848 1.848q -0.68775 1.1655 -0.68775 2.5305q 0 1.3755 0.6825 2.53575q 0.6825 1.16025 1.84275 1.84275q 1.16025 0.6825 2.53575 0.6825q 1.3755 0 2.541 -0.6825q 1.1655 -0.6825 1.848 -1.84275q 0.6825 -1.16025 0.6825 -2.53575q 0 -1.3755 -0.68775 -2.53575Z m -0.378 4.8615q -0.62475 1.06575 -1.68525 1.6905q -1.0605 0.62475 -2.3205 0.62475q -1.2495 0 -2.31525 -0.62475q -1.06575 -0.62475 -1.68525 -1.6905q -0.6195 -1.06575 -0.6195 -2.32575q 0 -1.2495 0.6195 -2.31525q 0.6195 -1.06575 1.68525 -1.69575q 1.06575 -0.63 2.31525 -0.63q 1.2495 0 2.31525 0.63q 1.06575 0.63 1.6905 1.69575q 0.62475 1.06575 0.62475 2.31525q 0 1.26 -0.62475 2.32575Z m -5.11875 0.41475q 0.4935 0 0.66675 -0.0945q 0.17325 -0.0945 0.17325 -0.4305v -4.578q 0 -0.294 -0.05775 -0.4305q -0.05775 -0.1365 -0.1995 -0.1785q -0.14175 -0.042 -0.45675 -0.042h -0.6405v -0.294h 3.297v 0.294h -0.63q -0.315 0 -0.45675 0.042q -0.14175 0.042 -0.189 0.17325q -0.04725 0.13125 -0.04725 0.43575v 6.069h -0.231q -0.147 -0.3255 -0.693 -0.5145q -0.546 -0.189 -1.1445 -0.168v -0.2835h 0.609Z "/></symbol><symbol id="g8BFB07B7900D860940E9D2B0BB1CC3C9" overflow="visible"><path d="M 0 0m 1.62121582 0.155395508q -0.554321289 0.243530273 -0.872070313 0.698120117q -0.317749023 0.454589844 -0.317749023 1.062255859q 0 0.440673828 0.187866211 0.793212891q 0.187866211 0.352539063 0.489379883 0.584472656q 0.301513672 0.231933594 0.658691406 0.338623047q -0.459228516 0.166992188 -0.776977539 0.556640625q -0.317749023 0.389648438 -0.317749023 1.011230469q 0 0.51953125 0.276000977 0.943969727q 0.276000977 0.424438477 0.776977539 0.66796875q 0.500976563 0.243530273 1.150390625 0.243530273q 0.649414063 0 1.150390625 -0.243530273q 0.500976563 -0.243530273 0.776977539 -0.66796875q 0.276000977 -0.424438477 0.276000977 -0.943969727q 0 -0.621582031 -0.317749023 -1.011230469q -0.317749023 -0.389648438 -0.776977539 -0.556640625q 0.357177734 -0.106689453 0.658691406 -0.338623047q 0.301513672 -0.231933594 0.489379883 -0.584472656q 0.187866211 -0.352539063 0.187866211 -0.793212891q 0 -0.607666016 -0.317749023 -1.062255859q -0.317749023 -0.454589844 -0.872070313 -0.698120117q -0.554321289 -0.243530273 -1.254760742 -0.243530273q -0.700439453 0 -1.254760742 0.243530273Z m -0.180908203 1.064575195q 0.220336914 -0.310791016 0.598388672 -0.475463867q 0.378051758 -0.164672852 0.837280273 -0.164672852q 0.459228516 0 0.837280273 0.164672852q 0.378051758 0.164672852 0.598388672 0.475463867q 0.220336914 0.310791016 0.220336914 0.718994141q 0 0.436035156 -0.220336914 0.7421875q -0.220336914 0.306152344 -0.596069336 0.461547852q -0.375732422 0.155395508 -0.839599609 0.155395508q -0.463867188 0 -0.839599609 -0.155395508q -0.375732422 -0.155395508 -0.596069336 -0.461547852q -0.220336914 -0.306152344 -0.220336914 -0.7421875q 0 -0.408203125 0.220336914 -0.718994141Z m 0.171630859 3.267944336q 0.187866211 -0.28527832 0.51953125 -0.438354492q 0.331665039 -0.153076172 0.744506836 -0.153076172q 0.412841797 0 0.744506836 0.153076172q 0.331665039 0.153076172 0.51953125 0.438354492q 0.187866211 0.28527832 0.187866211 0.670288086q 0 0.385009766 -0.187866211 0.672607422q -0.187866211 0.287597656 -0.51953125 0.438354492q -0.331665039 0.150756836 -0.744506836 0.150756836q -0.412841797 0 -0.744506836 -0.150756836q -0.331665039 -0.150756836 -0.51953125 -0.438354492q -0.187866211 -0.287597656 -0.187866211 -0.672607422q 0 -0.385009766 0.187866211 -0.670288086Z "/></symbol><symbol id="g95D1EAD53F0C1EBE974A41AF20853C2A" overflow="visible"><path d="M 0 0m 4.088989258 6.665771484q 0.554321289 -0.389648438 0.839599609 -1.148071289q 0.28527832 -0.758422852 0.28527832 -1.857788086q 0 -1.178222656 -0.294555664 -2.020141602q -0.294555664 -0.841918945 -0.858154297 -1.284912109q -0.563598633 -0.442993164 -1.366088867 -0.442993164q -0.556640625 0 -0.992675781 0.197143555q -0.436035156 0.197143555 -0.716674805 0.570556641q -0.280639648 0.373413086 -0.373413086 0.888305664h 0.807128906q 0.102050781 -0.468505859 0.447631836 -0.735229492q 0.345581055 -0.266723633 0.865112305 -0.266723633q 0.528808594 0 0.923095703 0.357177734q 0.394287109 0.357177734 0.607666016 1.006591797q 0.213378906 0.649414063 0.213378906 1.498291016v 0.102050781q -0.153076172 -0.310791016 -0.426757813 -0.552001953q -0.273681641 -0.241210938 -0.628540039 -0.373413086q -0.354858398 -0.132202148 -0.735229492 -0.132202148q -0.654052734 0 -1.164306641 0.289916992q -0.510253906 0.289916992 -0.793212891 0.809448242q -0.282958984 0.51953125 -0.282958984 1.1875q 0 0.654052734 0.296875 1.178222656q 0.296875 0.524169922 0.821044922 0.821044922q 0.524169922 0.296875 1.178222656 0.296875q 0.793212891 0 1.34753418 -0.389648438Z m -2.662597656 -2.741455078q 0.197143555 -0.37109375 0.549682617 -0.577514648q 0.352539063 -0.206420898 0.807128906 -0.206420898q 0.431396484 0 0.772338867 0.208740234q 0.340942383 0.208740234 0.533447266 0.577514648q 0.192504883 0.368774414 0.192504883 0.832641602q 0 0.473144531 -0.194824219 0.846557617q -0.194824219 0.373413086 -0.542724609 0.584472656q -0.347900391 0.21105957 -0.788574219 0.21105957q -0.440673828 0 -0.788574219 -0.208740234q -0.347900391 -0.208740234 -0.542724609 -0.579833984q -0.194824219 -0.37109375 -0.194824219 -0.839599609q 0 -0.477783203 0.197143555 -0.848876953Z "/></symbol><symbol id="gC77012C6426D05C9D68A33F0B8048313" overflow="visible"><path d="M 0 0m 1.584106445 0.320068359q -0.549682617 0.408203125 -0.848876953 1.210693359q -0.299194336 0.802490234 -0.299194336 1.952880859q 0 1.150390625 0.299194336 1.952880859q 0.299194336 0.802490234 0.848876953 1.210693359q 0.549682617 0.408203125 1.291870117 0.408203125q 0.7421875 0 1.291870117 -0.408203125q 0.549682617 -0.408203125 0.848876953 -1.210693359q 0.299194336 -0.802490234 0.299194336 -1.952880859q 0 -1.150390625 -0.299194336 -1.952880859q -0.299194336 -0.802490234 -0.848876953 -1.210693359q -0.549682617 -0.408203125 -1.291870117 -0.408203125q -0.7421875 0 -1.291870117 0.408203125Z m 0.090454102 0.990356445q 0.422119141 -0.735229492 1.201416016 -0.735229492q 0.779296875 0 1.201416016 0.735229492q 0.422119141 0.735229492 0.422119141 2.173217773q 0 1.437988281 -0.422119141 2.173217773q -0.422119141 0.735229492 -1.201416016 0.735229492q -0.779296875 0 -1.201416016 -0.735229492q -0.422119141 -0.735229492 -0.422119141 -2.173217773q 0 -1.437988281 0.422119141 -2.173217773Z "/></symbol></defs></svg>